<svg xmlns="http://www.w3.org/2000/svg" xmlns:xlink="http://www.w3.org/1999/xlink"><symbol fill="#fff" id="icon-aspicio" viewBox="-147 -147 294 294"><title>aspicio</title><g id="d"><g id="c"><g id="b"><path id="a" d="M7.2-47L6-68H-6l-1.236 21"/><use xmlns:xlink="http://www.w3.org/1999/xlink" xlink:href="#a" transform="scale(1 -1)"/></g><use xlink:href="#b" transform="rotate(90)"/></g><use xlink:href="#c" transform="rotate(45)"/></g><use xlink:href="#d" transform="rotate(22.5)"/><circle r="23"/><g transform="matrix(.99712 0 0 1.25836 0 2.874)" fill="none" stroke="#fff"><path d="M0 87c-66 0-117-54-138.5-87C-117-33-66-87 0-87S117-33 138.5 0C117 33 66 87 0 87z" stroke-width="14"/><circle r="47.5" stroke-width="19"/></g></symbol><symbol id="icon-bitcoin" viewBox="0 0 1464.852 1464.852"><title>bitcoin</title><path d="M912.501 221.935L912.632.039 777.53.033l-.153 216.067c-35.477.002-71.774.643-107.825 1.397L669.559.041 534.584 0l-.001 221.777-272.332.341-.014 144.269s99.752-1.874 98.091-.036c54.709.042 72.537 31.789 77.69 59.21l-.198 607.853c-2.41 17.217-12.537 44.651-50.771 44.646 1.738 1.536-98.213-.161-98.213-.161L262 1239.418l272.243.887-.013 224.454 134.917.052.087-222.059c37.116.75 72.891 1.071 107.868 1.053l-.125 221.037 135.077.01.114-224.042c227.102-12.98 386.072-70.146 405.816-283.227 15.986-171.688-64.722-248.335-193.635-279.352 78.307-39.934 127.288-110.151 115.869-227.234l.086-.104c-15.363-159.964-153.441-213.637-327.803-228.958zm138.643 708.801l-.04.033c-.082 167.727-287.149 148.585-378.74 148.621l.125-297.347c91.562.041 378.605-26.189 378.655 148.693zm-62.619-419.519c-.071 152.646-239.588 134.747-315.884 134.717l-.016-269.728c76.328.046 315.874-24.134 315.803 135.024z" fill="#fff"/></symbol><symbol fill="#fff" id="icon-eve" viewBox="0 0 64 64"><title>eve</title><path d="M40.59 4H23.41A3.41 3.41 0 0020 7.41v9.17A3.41 3.41 0 0023.41 20h3.91a.68.68 0 01.68.68v.22a1.1 1.1 0 001.1 1.1h5.8a1.1 1.1 0 001.1-1.1v-.22a.68.68 0 01.68-.68h3.91A3.41 3.41 0 0044 16.59V7.41A3.41 3.41 0 0040.59 4zM38 12a2 2 0 01-1.51-.71.86.86 0 00-.66-.29h-7.65a.86.86 0 00-.66.29A2 2 0 0126 12a2 2 0 111.53-3.27.84.84 0 00.65.27h7.63a.84.84 0 00.65-.27A2 2 0 1138 12zM17 8a1 1 0 00-1 1v6a1 1 0 002 0V9a1 1 0 00-1-1zm30 8a1 1 0 001-1V9a1 1 0 10-2 0v6a1 1 0 001 1zM20 46.38A1.62 1.62 0 0021.62 48h20.76A1.62 1.62 0 0044 46.38v-17A5.36 5.36 0 0038.64 24H25.36A5.36 5.36 0 0020 29.36zm8.32-13.77a2.5 2.5 0 012.68-.38 2.54 2.54 0 002.06 0 2.5 2.5 0 012.65.39A2.6 2.6 0 0136 36l-2 2.86a2.5 2.5 0 01-4.12 0l-2-2.85a2.6 2.6 0 01.44-3.39zM20 56h-.1a1.9 1.9 0 00-1.9 1.9v1a1.07 1.07 0 001.07 1.1h9.87A1.07 1.07 0 0030 58.93v-1A1.9 1.9 0 0028.1 56H28v-4.83A1.17 1.17 0 0026.83 50h-5.66A1.17 1.17 0 0020 51.17zm22.83-6h-5.66A1.17 1.17 0 0036 51.17V56h-.1a1.9 1.9 0 00-1.9 1.9v1a1.07 1.07 0 001.07 1.1h9.87A1.07 1.07 0 0046 58.93v-1A1.9 1.9 0 0044.1 56H44v-4.83A1.17 1.17 0 0042.83 50zM14 31.12v9.73a1.55 1.55 0 01-.39 1.06 6 6 0 003.32 10A.93.93 0 0018 51v-2a1.33 1.33 0 00-.8-1.2 1.94 1.94 0 01-.1-3.48 1.8 1.8 0 00.9-1.62V28.88a.86.86 0 00-.82-.88A3.12 3.12 0 0014 31.12zm32.8 16.64A1.33 1.33 0 0046 49v2a.93.93 0 001.07.92 6 6 0 003.32-10 1.55 1.55 0 01-.39-1.06v-9.74A3.12 3.12 0 0046.82 28a.86.86 0 00-.82.88v13.79a1.8 1.8 0 00.9 1.62 1.94 1.94 0 01-.1 3.48z"/></symbol><symbol fill="#fff" id="icon-facebook" viewBox="0 0 438.536 438.536"><title>facebook</title><path d="M414.41 24.123C398.333 8.042 378.963 0 356.315 0H82.228C59.58 0 40.21 8.042 24.126 24.123 8.045 40.207.003 59.576.003 82.225v274.084c0 22.647 8.042 42.018 24.123 58.102 16.084 16.084 35.454 24.126 58.102 24.126h274.084c22.648 0 42.018-8.042 58.095-24.126 16.084-16.084 24.126-35.454 24.126-58.102V82.225c-.001-22.649-8.043-42.021-24.123-58.102zm-41.255 201.425h-49.963V406.84H248.39V225.548h-37.4V163.02h37.401v-37.402c0-26.838 6.283-47.107 18.843-60.813 12.559-13.706 33.304-20.555 62.242-20.555h49.963v62.526h-31.401c-10.663 0-17.467 1.853-20.417 5.568-2.949 3.711-4.428 10.23-4.428 19.558v31.119h56.534l-6.572 62.527z"/></symbol><symbol fill="#fff" id="icon-fasttracker" viewBox="0 0 321.105 321.105"><title>fasttracker</title><path d="M160.546.034C71.873.034 0 71.907 0 160.581c0 63.891 37.418 118.894 91.445 144.734l5.025-97.098s-9.452-3.102-11.521-4.112c-20.048-8.831-34.612-34.833-34.612-68.58 0-36.825 28.559-68.544 56.17-68.806h.104c27.617.261 56.177 31.98 56.177 68.806 0 33.747-14.582 59.738-34.589 68.58-.157.069-11.613 4.229-11.613 4.229l5.612 107.961c12.315 3.031 25.119 4.81 38.37 4.81 17.87 0 34.984-3.044 51.041-8.424l4.973-96.214c-13.105-2.882-24.283-11.225-31.289-21.692-8.679-13.001 6.681-128.067 6.681-128.067h9.992v107.978h9.923V66.72h10.852v107.99h9.876V66.72h11.259v107.99h9.91V66.72h7.668s15.36 115.066 6.67 128.067c-6.937 10.364-18.01 18.683-30.952 21.634-.232.082-.442.162-.442.162l4.322 82.761c47.823-27.804 80.053-79.46 80.053-138.762C321.081 71.908 249.208.034 160.546.034z"/></symbol><symbol fill="#fff" id="icon-game-of-life" viewBox="0 0 1000 1000"><title>game-of-life</title><path d="M206 82v49h96V34h-96v48zm492 0v49h96V34h-96v48zM304 183v49h-98v97h-97v99H10v439h97V671h50v196h97v-97h492v97h97V671h50v196h97V428h-99v-99h-97v-97h-98v-99h-97v99H401v-99h-97v50zm99 342v50H302v-99h101v49zm295 0v50H597v-99h101v49zM256 918v48h193v-97H256v49zm295 0v48h193v-97H551v49z"/></symbol><symbol fill="#fff" id="icon-github" viewBox="0 0 475.084 475.084"><title>github</title><path d="M436.244 146.752c5.14-15.422 7.713-31.409 7.713-47.967 0-22.08-4.859-42.828-14.564-62.242-20.362 0-38.349 3.715-53.961 11.136-15.604 7.423-33.4 18.938-53.379 34.545-25.122-6.09-51.777-9.135-79.941-9.135-30.837 0-60.245 3.333-88.223 9.994-20.364-15.99-38.351-27.74-53.959-35.26-15.608-7.52-33.689-11.279-54.247-11.279-9.707 19.414-14.56 40.163-14.56 62.242 0 16.751 2.568 32.93 7.708 48.535C12.942 177.587 0 215.272 0 260.383c0 39.595 5.898 71.092 17.701 94.507 6.283 12.367 14.465 23.312 24.554 32.832 10.085 9.514 21.601 17.228 34.545 23.13 12.946 5.896 25.981 10.801 39.116 14.699 13.134 3.9 27.646 6.758 43.54 8.559 15.893 1.816 29.93 3.004 42.111 3.579 12.181.564 25.693.853 40.544.853 17.508 0 33.396-.432 47.678-1.283 14.277-.855 30.594-2.953 48.964-6.276 18.367-3.333 34.547-7.857 48.54-13.565 13.99-5.708 27.412-13.895 40.259-24.551 12.847-10.663 22.884-23.318 30.121-37.976 11.604-23.603 17.412-55.107 17.412-94.507-.007-45.302-12.95-83.178-38.841-113.632zm-34.249 207.703c-6.092 12.471-13.802 22.265-23.127 29.41-9.329 7.139-20.938 12.847-34.831 17.135-13.9 4.281-27.217 7.087-39.971 8.415-12.758 1.334-26.933 1.998-42.545 1.998h-47.966c-15.607 0-29.79-.664-42.541-1.998-12.752-1.328-26.075-4.134-39.971-8.415-13.891-4.288-25.5-9.996-34.829-17.135-9.329-7.146-17.037-16.939-23.128-29.41-6.09-12.471-9.136-27.076-9.136-43.824 0-22.847 6.567-42.264 19.702-58.245 13.134-15.99 30.929-23.982 53.387-23.982 8.188 0 26.746 1.997 55.677 5.995 13.513 2.093 28.456 3.14 44.823 3.14 16.372 0 31.313-1.044 44.824-3.14 29.317-3.999 47.869-5.995 55.678-5.995 22.457 0 40.252 7.996 53.386 23.982 13.135 15.988 19.698 35.398 19.698 58.245 0 16.751-3.046 31.364-9.13 43.824z"/><path d="M166.875 265.52c-5.806-6.475-12.703-9.712-20.699-9.712-7.998 0-14.896 3.241-20.701 9.712-5.802 6.468-9.897 13.703-12.275 21.689-2.383 8.002-3.571 15.804-3.571 23.422 0 7.61 1.191 15.413 3.571 23.414 2.375 7.991 6.468 15.222 12.275 21.689 5.808 6.475 12.703 9.713 20.701 9.713 7.996 0 14.896-3.244 20.699-9.713 5.804-6.468 9.897-13.698 12.275-21.689 2.38-8.001 3.571-15.804 3.571-23.414 0-7.611-1.188-15.42-3.571-23.422-2.379-7.983-6.468-15.215-12.275-21.689zm182.726 0c-5.804-6.475-12.703-9.712-20.697-9.712-7.991 0-14.894 3.241-20.701 9.712-5.804 6.468-9.896 13.703-12.271 21.689-2.385 8.002-3.576 15.804-3.576 23.422 0 7.61 1.191 15.413 3.576 23.414 2.375 7.991 6.468 15.222 12.271 21.689 5.808 6.475 12.71 9.713 20.701 9.713 7.994 0 14.894-3.244 20.697-9.713 5.801-6.468 9.896-13.698 12.278-21.689 2.379-8.001 3.569-15.804 3.569-23.414 0-7.611-1.19-15.42-3.569-23.422-2.381-7.983-6.477-15.215-12.278-21.689z"/></symbol><symbol fill="#fff" id="icon-instagram" viewBox="0 0 26 26"><title>instagram</title><path d="M20 7c-.551 0-1-.449-1-1V4c0-.551.449-1 1-1h2c.551 0 1 .449 1 1v2c0 .551-.449 1-1 1h-2zm-7 2.188c-.726 0-1.396.213-1.973.563.18-.056.367-.093.564-.093a1.933 1.933 0 11-1.933 1.934c0-.199.039-.386.094-.565A3.77 3.77 0 009.188 13a3.81 3.81 0 003.813 3.813A3.812 3.812 0 1013 9.188z"/><path d="M13 7a6 6 0 110 12 6 6 0 010-12m0-2c-4.411 0-8 3.589-8 8s3.589 8 8 8 8-3.589 8-8-3.589-8-8-8z"/><path d="M21.125 0H4.875A4.874 4.874 0 000 4.875v16.25A4.874 4.874 0 004.875 26h16.25A4.874 4.874 0 0026 21.125V4.875A4.874 4.874 0 0021.125 0zM24 9h-6.537A5.97 5.97 0 0119 13a6 6 0 01-12 0c0-1.539.584-2.938 1.537-4H2V4.875A2.879 2.879 0 014.875 2h16.25A2.878 2.878 0 0124 4.875V9z"/></symbol><symbol id="icon-linkedin" viewBox="0 0 448 448"><title>linkedin</title><path d="M100 448H7V149h93zM54 108C24 108 0 84 0 54S24 0 54 0s54 24 54 54-25 54-54 54zm394 340h-93V302c0-34 0-79-48-79s-56 38-56 77v148h-92V149h89v41h1c12-24 43-49 88-49 94 0 111 62 111 143z" fill="#fff"/></symbol><symbol fill="#fff" id="icon-lostseas" viewBox="0 0 612 612"><title>lostseas</title><path d="M122.855 335.491c3.514 11.463 7.147 23.318 8.96 35.258.741 4.866 3.647 40.261 5.218 59.707a16.104 16.104 0 0013.643 14.626l25.821 3.904a8.915 8.915 0 017.417 7.097l3.402 17.401a16.105 16.105 0 0015.814 13.014l200.241-.119a16.103 16.103 0 0015.726-12.682l3.896-17.915a8.918 8.918 0 017.383-6.717l31.437-4.566a16.099 16.099 0 0013.759-14.964c1.206-20.008 3.457-56.434 4.155-61.425 1.653-11.784 5.131-23.432 8.49-34.764 4.709-15.857 9.578-32.225 9.578-49.248.006-108.709-86.402-197.132-192.608-197.132S112.574 175.437 112.574 284.17c.001 17.782 5.227 34.834 10.281 51.321zm207.43-10.032c1.221-30.877 28.91-38.641 59.787-37.421 30.877 1.221 53.249 10.965 52.028 41.842-1.221 30.877-27.241 54.918-58.118 53.697-30.877-1.221-54.918-27.241-53.697-58.118zm-18.166 60.589l20.042 29.679a8.917 8.917 0 01.639 8.871l-2.875 5.951a8.919 8.919 0 01-8.03 5.038h-34.334a8.918 8.918 0 01-8.03-5.038l-2.875-5.951a8.92 8.92 0 01.639-8.871l20.042-29.679c3.536-5.237 11.246-5.237 14.782 0zm-91.82-98.009c30.877-1.221 58.566 6.543 59.787 37.421 1.221 30.877-22.82 56.897-53.697 58.118-30.877 1.221-56.897-22.82-58.118-53.697-1.221-30.878 21.151-40.622 52.028-41.842zM556.35 58.611c2.402-14.75-2.089-30.405-13.499-41.757-18.326-18.234-48.224-18.566-66.929-.721-19.558 18.659-19.834 49.646-.828 68.652l-17.47 17.47c-6.98 6.981-6.98 18.299 0 25.28l29.802 29.802c6.98 6.981 18.299 6.981 25.279 0l17.47-17.47c19.007 19.007 49.994 18.73 68.652-.828 17.845-18.705 17.512-48.604-.722-66.929C586.754 60.7 571.1 56.209 556.35 58.611zM81.824 139.866l17.47 17.47c6.981 6.981 18.299 6.981 25.279 0l29.802-29.802c6.981-6.981 6.981-18.299 0-25.28l-17.47-17.47c19.007-19.006 18.73-49.993-.828-68.652-18.705-17.844-48.603-17.512-66.929.722-11.409 11.352-15.9 27.007-13.498 41.757C40.9 56.209 25.246 60.7 13.893 72.109c-18.234 18.325-18.567 48.224-.722 66.929 18.659 19.558 49.646 19.834 68.653.828zm517.005 333.096c-18.659-19.559-49.646-19.834-68.652-.828l-17.47-17.47c-6.981-6.981-18.299-6.981-25.279 0l-29.802 29.802c-6.98 6.981-6.98 18.299 0 25.28l17.47 17.47c-19.007 19.007-18.73 49.994.828 68.652 18.705 17.845 48.604 17.513 66.929-.721 11.41-11.352 15.901-27.007 13.499-41.757 14.75 2.402 30.404-2.089 41.756-13.499 18.233-18.326 18.565-48.224.721-66.929zM55.65 553.389c-2.402 14.75 2.089 30.405 13.499 41.757 18.326 18.234 48.224 18.566 66.929.721 19.558-18.659 19.834-49.646.828-68.652l17.47-17.47c6.981-6.98 6.981-18.299 0-25.28l-29.802-29.802c-6.981-6.981-18.299-6.981-25.279 0l-17.47 17.47c-19.007-19.007-49.994-18.731-68.652.828-17.845 18.705-17.513 48.603.721 66.929C25.246 551.3 40.9 555.791 55.65 553.389z"/></symbol><symbol fill="#fff" id="icon-paprika-viewer" viewBox="0 0 24 24"><title>paprika-viewer</title><path d="M20 8.8a3 3 0 00-4.5-2.5 5 5 0 00-1.6-1A3 3 0 0115.5 4l-.7-2a5 5 0 00-2.9 3c-1.7 0-2.5 1-3 2a15.3 15.3 0 00.7 9.2s-1.7-2-2-5.2c-.3-1.7 0-3.3.1-4.3H6.4C5 7 4 8 4 9.3c-.2 2.6 1.1 7.6 2 9.9.5 1.4 1.8 2.9 3 2.8.8 0 1.5 0 2-1 1 1 2.1 1.2 3.3 1 1.6-.3 2.7-1 3.7-2.8a25 25 0 002-10.4z"/></symbol><symbol id="icon-satsuma" viewBox="0 0 489.891 489.891"><title>satsuma</title><g fill="#fff"><path d="M445.181 79.667c7 70.8-35.8 166-117.4 248-73.1 73.1-162.1 118.2-232.9 118.2-5.1 0-10.1-.4-15.2-.8 107.3 68 246.9 59.1 335.5-29.9s98.1-228.6 30-335.5zm-259.7 119.7l-38.1-38.1c-2.7.4-33.2 20.5-69.6 90.6l87.9-32.3c10.5-3.4 18.6-15.5 19.8-20.2zm34.2-33.4l32.3-88.2c-64.9 30.3-90.2 66.9-90.6 69.2l38.1 38.1c5.1-.8 16.7-9.4 20.2-19.1zm28.8-2.3s93.8-89.3 94.9-98.8c-7-3.1-32.5-10.7-51.7-1.6-7 1.6-17.5 11.7-20.2 19.4l-32.3 87.9c2.3-1.1 5.4-3 9.3-6.9zm-77.8 75.4l-87.9 32.3c-7.8 2.7-17.5 13.2-19.4 20.2-5.1 21.4-4.7 38.9 1.2 51.7 2.7-.8 7-3.1 12.1-8.2l86.7-86.7c3.8-3.5 6.2-7 7.3-9.3zm28.4-3.1c6.6-7 14.8-12.4 22.5-14 1.9-7.8 7.4-15.9 14.4-22.5 0-.4-.4-.4-.4-.8-.8-1.9-1.2-4.3-1.2-6.6-2.7 0-5.1-.8-7.4-1.6-6.6 7-14.8 12.4-22.5 14-1.9 7.8-7.4 15.9-14.4 22.5 0 .4.4.4.4.8.8 1.9 1.2 4.3 1.2 6.6 2.8 0 5.5.4 7.4 1.6zm-64.5 126.7c7-1.6 17.5-11.7 20.2-19.4l32.3-87.9c-2.3 1.2-5.4 3.1-9.3 7l-86.8 86.7c-5.1 5.1-7.4 9.7-8.2 12.1 13.8 9 42.1 3.9 51.8 1.5z"/><path d="M240.681 226.667l38.1 38.1c2.7-.4 8.9-3.5 14.4-9.7 22.9-26 42-54 54.8-80.9l-87.9 32.3c-10 3.4-18.6 15.5-19.4 20.2zm14.8-39.7l87.9-32.3c7.8-2.7 17.5-13.2 19.4-20.2 5.1-21.4 4.7-38.9-1.2-51.7-2.7.8-7 3.1-12.1 8.2l-87.1 86.7c-3.8 3.5-5.7 7-6.9 9.3z"/><path d="M313.381 313.367c103.8-103.8 142.7-232.9 87.1-288.1-55.2-55.6-184.3-16.3-288.1 87.1-103.4 103.8-142.7 232.8-87.1 288.4s184.7 16.4 288.1-87.4zm-250.4 49.7c-6.2 0-11.3-3.1-14-8.2-9.7-17.5-11.3-41.2-4.7-68.4 1.9-7.8 7.4-15.9 14.4-22.5-1.9-3.9-3.1-10.5 1.6-20.2 13.6-28.4 33.8-57.9 57.9-85.5 7.4-8.2 15.9-14 24.1-15.9 1.9-8.2 7.8-17.1 15.9-24.1 27.6-24.5 57.2-44.3 85.5-57.9 7.8-3.5 14.8-3.9 20.2-1.6 6.6-7 15.2-12.4 22.5-14.4 27.6-6.6 51.3-5.1 68.4 4.7 4.3 2.3 8.1 8.1 7.8 14 6.2 0 11.3 3.1 14 8.2 9.7 17.5 11.3 41.2 4.7 68.4-1.9 7.8-7.4 15.9-14.4 22.5 1.9 3.9 3.1 10.5-1.6 20.2-13.6 28.4-33.8 57.9-57.9 85.5-7 8.2-15.6 14-23.7 15.9-1.9 8.2-7.8 17.1-15.9 24.1-27.6 24.5-57.2 44.3-85.5 57.9-4.3 1.9-13.4 4.9-20.2 1.6-6.6 7-14.8 12.4-22.5 14.4-11.3 2.7-21.8 4.3-31.5 4.3-14.4 0-26.8-2.7-36.9-8.6-4.7-2.7-8.8-8.5-8.2-14.4z"/><path d="M206.481 260.067l-32.3 87.9c26.8-12.8 54.8-31.9 80.9-54.8 6.6-5.8 9.3-12.1 9.7-14.4l-38.1-38.1c-5 1.1-16.7 9.7-20.2 19.4z"/></g></symbol><symbol fill="#fff" id="icon-stackoverflow" viewBox="0 0 511.6 511.6"><title>stackoverflow</title><path d="M325 344.9l-201-18.6-4 42.9 201.2 18.5zm-5 55.1l-201.8.3v43l201.9-.2zm43.7-160.7L190 136.5l-22 37 173.9 102.9zm-25.4 49.1l-195-52.3-11.1 41.7 195 52.2z"/><path d="M354.6 477.7h-265V301.2H55.1v210.1h.3l10 .3h323.2v-.3l.3-10v-200h-34.3zM422 0l-42.6 7.4 34.6 199 42.5-7.4zM257 66.5l113.9 166.8 35.4-24.3L292.6 42z"/></symbol><symbol id="icon-starrepublic" viewBox="0 0 135.7 135.6"><title>starrepublic</title><g fill="#fff"><path d="M161.9 9.3c0-1.6 0-3.2-.1-4.8-3 .1-5.9.4-8.8.9v3.9c0 37.8-21 70.6-52 87.6 1.1 2.8 2.3 5.4 3.7 8 34.1-18.3 57.2-54.3 57.2-95.6zm-27.2 1.9c-3.2 1.5-6.2 3.3-9.1 5.4-2.1 20.9-13 39.2-29 51-.1 1.5-.2 3.1-.2 4.7 0 2 .1 4 .3 5.9 22.3-14.1 37.3-38.8 38-67zm8.8 125.6c6.6 2.1 13.5 3.3 20.8 3.3 7.3 0 14.2-1.2 20.8-3.3-6.6-2.1-13.5-3.3-20.8-3.3-7.3.1-14.3 1.2-20.8 3.3z" transform="translate(-96.4 -4.5)"/><path d="M127.1 129c3 2 6.3 3.8 9.6 5.3 8.5-3.5 17.8-5.4 27.5-5.4s19 1.9 27.5 5.4c3.4-1.5 6.6-3.3 9.6-5.3-11.1-5.7-23.8-9-37.2-9-13.4 0-25.9 3.3-37 9zm-6.9-108.3c-11.8 10.1-20.1 24.2-22.8 40.2 11.8-10.1 20.1-24.2 22.8-40.2zm19.3-11.4c0 31.5-16.9 59-42.1 74.1.5 3.1 1.2 6.1 2.1 9 29.1-16.2 48.9-47.3 48.9-83 0-1 0-2-.1-3-3 .7-5.9 1.7-8.8 2.8v.1zm91.6 51.6c-2.7-16-11-30.1-22.8-40.2 2.7 16 11 30.1 22.8 40.2z" transform="translate(-96.4 -4.5)"/><path d="M231.8 78.2c.2-2 .3-3.9.3-5.9 0-1.6-.1-3.1-.2-4.7-16-11.9-26.9-30.1-29-51-2.9-2-5.9-3.8-9.1-5.4.6 28.2 15.6 52.9 38 67z" transform="translate(-96.4 -4.5)"/><path d="M229 92.3c.9-2.9 1.6-5.9 2.1-9a85.863 85.863 0 01-42.1-74v-.2c-2.8-1.1-5.8-2-8.8-2.8 0 1-.1 2-.1 3 .1 35.7 19.8 66.8 48.9 83z" transform="translate(-96.4 -4.5)"/><path d="M175.4 9.3c0-1.3 0-2.6.1-3.9-2.9-.5-5.8-.8-8.8-.9-.1 1.6-.1 3.2-.1 4.8 0 41.3 23.1 77.2 57.1 95.6 1.4-2.6 2.7-5.2 3.7-8-31-16.9-52-49.8-52-87.6zM107.3 109c1.6 2.5 3.4 4.9 5.3 7.1 15.1-9.2 32.8-14.4 51.7-14.4 18.9 0 36.6 5.3 51.7 14.4 1.9-2.2 3.7-4.6 5.3-7.1-16.6-10.2-36.1-16.2-57-16.2s-40.5 6-57 16.2z" transform="translate(-96.4 -4.5)"/><path d="M115.8 119.7c2.2 2.2 4.5 4.3 6.9 6.2 12.3-6.8 26.4-10.6 41.5-10.6 15.1 0 29.2 3.9 41.5 10.6 2.5-1.9 4.8-4 6.9-6.2-14.2-8.4-30.7-13.3-48.4-13.3s-34.2 4.9-48.4 13.3z" transform="translate(-96.4 -4.5)"/></g></symbol></svg>