<svg xmlns="http://www.w3.org/2000/svg" viewBox="0 0 512 512" fill="#fff">
  <defs/>
  <path d="M256 512h3c-59-32-121-57-186-77 47 48 112 77 183 77zM5 306l7 27a1077 1077 0 01363 149c9-4 17-9 24-14A1031 1031 0 005 306zM509 217h-96c-5 11-12 25-23 35v29a1062 1062 0 01122-15 258 258 0 00-3-49zM336 217h-29c-1 11-3 22-7 32-4 8-9 19-18 28v29a1079 1079 0 0177-21v-33c-11-10-18-24-23-35zM205 331l46-16v-38c-8-9-14-20-17-28-4-10-6-21-7-32H3a257 257 0 00-2 57 1084 1084 0 01204 57zM234 171c4-12 11-29 23-38 6-4 14-4 19 0 12 9 20 26 24 38l4 16h23l-2-22c0-16 4-35 10-53 5-16 15-37 30-49 6-4 13-4 19 0 15 12 25 33 30 49 6 18 10 37 10 53l-2 22h80a256 256 0 00-492 0h219l5-16zM425 448c15-13 29-28 40-45-29 3-59 8-89 14l49 31zM40 394a1074 1074 0 01271 112c11-2 21-5 30-9-97-60-202-104-315-130 4 10 9 18 14 27zM269 359l4 2c76-22 154-37 231-42l5-22c-89 6-176 23-262 52l22 10zM337 394c49-12 98-20 148-24l9-20c-60 6-120 16-179 31l22 13z"/>
</svg>
