<?xml version="1.0" encoding="UTF-8" standalone="no"?>
<!-- Generator: Adobe Illustrator 15.0.0, SVG Export Plug-In . SVG Version: 6.00 Build 0)  -->

<svg
   xmlns:dc="http://purl.org/dc/elements/1.1/"
   xmlns:cc="http://creativecommons.org/ns#"
   xmlns:rdf="http://www.w3.org/1999/02/22-rdf-syntax-ns#"
   xmlns:svg="http://www.w3.org/2000/svg"
   xmlns="http://www.w3.org/2000/svg"
   xmlns:sodipodi="http://sodipodi.sourceforge.net/DTD/sodipodi-0.dtd"
   xmlns:inkscape="http://www.inkscape.org/namespaces/inkscape"
   version="1.1"
   id="Layer_1"
   x="0px"
   y="0px"
   width="1464.8519"
   height="1464.8519"
   viewBox="0 0 1464.8519 1464.8519"
   enable-background="new 0 0 1984.25 1984.25"
   xml:space="preserve"
   sodipodi:docname="bitcoin.svg"
   inkscape:version="0.92.4 (5da689c313, 2019-01-14)"><metadata
   id="metadata9"><rdf:RDF><cc:Work
       rdf:about=""><dc:format>image/svg+xml</dc:format><dc:type
         rdf:resource="http://purl.org/dc/dcmitype/StillImage" /><dc:title></dc:title></cc:Work></rdf:RDF></metadata><defs
   id="defs7" /><sodipodi:namedview
   pagecolor="#ffffff"
   bordercolor="#666666"
   borderopacity="1"
   objecttolerance="10"
   gridtolerance="10"
   guidetolerance="10"
   inkscape:pageopacity="0"
   inkscape:pageshadow="2"
   inkscape:window-width="1920"
   inkscape:window-height="1005"
   id="namedview5"
   showgrid="false"
   fit-margin-top="0"
   fit-margin-left="0"
   fit-margin-right="0"
   fit-margin-bottom="0"
   inkscape:zoom="0.11893663"
   inkscape:cx="492.3"
   inkscape:cy="710.321"
   inkscape:window-x="0"
   inkscape:window-y="0"
   inkscape:window-maximized="1"
   inkscape:current-layer="Layer_1" />
<path
   d="M 912.501,221.935 912.632,0.03900258 777.53,0.03300258 777.377,216.1 c -35.477,0.002 -71.774,0.643 -107.825,1.397 L 669.559,0.04100258 534.584,2.578125e-6 534.583,221.777 l -272.332,0.341 -0.014,144.269 c 0,0 99.752,-1.874 98.091,-0.036 54.709,0.042 72.537,31.789 77.69,59.21 l -0.198,607.853 c -2.41,17.217 -12.537,44.651 -50.771,44.646 1.738,1.536 -98.213,-0.161 -98.213,-0.161 L 262,1239.418 l 272.243,0.887 -0.013,224.454 134.917,0.052 0.087,-222.0589 c 37.116,0.749 72.891,1.071 107.868,1.053 l -0.125,221.0369 135.077,0.01 0.114,-224.0419 C 1139.27,1227.83 1298.24,1170.664 1317.984,957.583 1333.97,785.895 1253.262,709.248 1124.349,678.231 1202.656,638.297 1251.637,568.08 1240.218,450.997 l 0.086,-0.104 C 1224.941,290.929 1086.863,237.256 912.501,221.935 Z m 138.643,708.801 -0.04,0.033 c -0.082,167.727 -287.149,148.585 -378.74,148.621 l 0.125,-297.347 c 91.562,0.041 378.605,-26.189 378.655,148.693 z M 988.525,511.217 C 988.454,663.863 748.937,645.964 672.641,645.934 l -0.016,-269.728 c 76.328,0.046 315.874,-24.134 315.803,135.024 z"
   id="path2"
   inkscape:connector-curvature="0"
   style="fill:#ffffff" />
</svg>