<svg xmlns="http://www.w3.org/2000/svg" xml:space="preserve" fill="#fff" viewBox="0 0 1000 1000">
  <path
    d="M989 172c-3-5-8-8-14-8h-2l-38 2 32-30 9-10-5-9c-2-5-8-8-13-8l-4 1-102 18-6-7c-35-43-84-65-139-65-14 0-29 1-44 4-103 19-154 98-207 181-72 111-146 225-358 225a666 666 0 0 1-62-3c-11 0-19 4-23 11-6 10 0 22 3 27v1a509 509 0 0 0 395 256v151c0 20 16 35 36 35h178c11 0 21-4 28-12 6-7 9-16 7-25-4-24-36-33-65-33-7 0-19 1-32 4l9-128 30-6a384 384 0 0 0 248-189 466 466 0 0 0 54-302l78-62c3-1 5-4 7-7 2-4 1-8 0-12zM509 875a148 148 0 0 0-42 3l9-117 33-2v116zM405 587c-44 31-92 34-119-12-29 9-61 6-75-21-4-9 2-16 6-16 150-8 287-125 341-249 4-9 17-10 19-1 43 158-8 352-172 299zm300-326a48 48 0 1 1 0-95 48 48 0 0 1 0 95z" />
</svg>