<svg xmlns="http://www.w3.org/2000/svg" viewBox="0 0 512 512">
  <defs/>
  <path d="M362 94l5-69-51 47 13 32z"/>
  <circle cx="256" cy="256" r="133.1" transform="rotate(-9 256 256)"/>
  <path d="M183 104l13-32-51-47 5 69zM294 98L256 0l-38 98a163 163 0 0176 0zM506 313l-87-59v2c0 26-6 51-17 73zM404 187l52-91-100 31c20 16 37 37 48 60zM420 219l28 19 58-39-69-10zM231 448l25 64 25-64-25-24zM145 487l77-72c-26-5-50-17-69-33zM290 415l77 72-8-105c-19 16-43 28-69 33zM388 361l2 34 66 20-34-59zM156 127L56 96l52 91c11-23 28-44 48-60zM92 219l-17-30-69 10 57 39zM56 416l66-21 2-34-34-5zM93 256v-2L6 313l104 16c-11-22-17-47-17-73z"/>
</svg>
