<svg xmlns="http://www.w3.org/2000/svg" fill="#fff" viewBox="0 0 475 475">
  <defs/>
  <path d="M436 147c5-16 8-32 8-48 0-22-5-43-15-62-20 0-38 3-54 11-15 7-33 19-53 34a380 380 0 00-168 1c-20-16-38-28-54-35-16-8-34-11-54-11-10 19-15 40-15 62 0 17 3 33 8 48-26 31-39 68-39 113 0 40 6 71 18 95a119 119 0 0059 56 301 301 0 00125 27 882 882 0 00137-7c18-3 34-8 48-14 14-5 28-13 41-24 12-11 22-23 30-38 11-24 17-55 17-95 0-45-13-83-39-113zm-34 207c-6 13-14 23-23 30s-21 13-35 17-27 7-40 8c-13 2-27 2-42 2h-48c-16 0-30 0-43-2-13-1-26-4-40-8s-25-10-35-17c-9-7-17-17-23-30-6-12-9-27-9-43 0-23 7-43 20-59s31-24 53-24l56 6a294 294 0 0089 0l56-6c22 0 40 8 53 24 14 16 20 36 20 59 0 16-3 31-9 43z"/>
  <path d="M167 266a27 27 0 00-42 0c-5 6-9 13-12 21a82 82 0 000 47c3 8 7 15 12 22a27 27 0 0042 0c6-7 10-14 12-22a82 82 0 000-47c-2-8-6-15-12-21zM350 266a27 27 0 00-42 0c-6 6-10 13-12 21a82 82 0 000 47c2 8 6 15 12 22a27 27 0 0042 0c5-7 9-14 12-22a82 82 0 000-47c-3-8-7-15-12-21z"/>
</svg>
