<svg xmlns="http://www.w3.org/2000/svg" fill="#fff" viewBox="0 0 612 612">
  <defs/>
  <path d="M123 335l9 36 5 59a16 16 0 0014 15l25 4a9 9 0 018 7l3 17a16 16 0 0016 13h200a16 16 0 0016-12l4-18a9 9 0 017-7l32-5a16 16 0 0014-14l4-62c1-12 5-23 8-35 5-16 10-32 10-49 0-109-87-197-193-197s-192 88-192 197c0 18 5 35 10 51zm207-10c2-30 29-38 60-37s53 11 52 42a56 56 0 11-112-5zm-18 61l20 30a9 9 0 011 9l-3 6a9 9 0 01-8 5h-34a9 9 0 01-8-5l-3-6a9 9 0 010-9l20-30c4-5 12-5 15 0zm-92-98c31-1 59 7 60 37a56 56 0 11-112 5c-1-31 21-41 52-42zM556 59a48 48 0 10-81 26l-17 17c-7 7-7 19 0 26l29 29c7 7 19 7 26 0l17-17a48 48 0 1026-81zM82 140l17 17c7 7 19 7 26 0l29-29c7-7 7-19 0-26l-17-17a48 48 0 10-81-26 48 48 0 1026 81zm517 333a48 48 0 00-69-1l-17-17c-7-7-19-7-26 0l-29 29c-7 7-7 19 0 26l17 17a48 48 0 1081 26 48 48 0 0043-80zM56 553a48 48 0 1081-26l17-17c7-7 7-19 0-26l-29-29c-7-7-19-7-26 0l-17 17a48 48 0 10-26 81z"/>
</svg>
