<svg xmlns="http://www.w3.org/2000/svg" xml:space="preserve" viewBox="0 0 100 100" fill="#fff">
    <path
        d="M95 66c-2-8-3-17-1-19l1-2-2-2h-8v-1c1-1 0-2-1-2-2 0-3 1-3 2v1l-3-1 2-2 1-3-2-1-16-1 1-3a68 68 0 0 1 7 2h2v-2c0-6 0-15 3-17l1-2-2-2h-8V8l-2-3-2 2-1 3h-9l-2 1c-1 0-5 7-5 15h-3v-2c1-1 0-2-1-2-2 0-3 1-3 2v2h-9l-2 1s-7 10-6 22l-8-1-2 1S2 60 6 69l1 1h2l6-1 11 1 2 3c0 2 1 8 7 11l5 3-11 1-2 3 3 1 12-1 17 2a116 116 0 0 0 28 1c1 0 2-1 2-3l-3-1H76l7-6c5-4 5-11 5-12v-1l-2-1h-5l1-4 10 3 2-1 1-2zM39 30h4l4 1h5l-1 3v2l-1 2v13l-8-2-1-1h-3l-2-1h-4l-5 1c-1-8 3-15 5-18zm23-16 4 1h5c-2 4-2 10-2 14l-4-2h-1l-4-1h-9c0-5 2-10 3-12zm12 28-1 2-1 3-1 12v5h-1l-3-2h-2l-2-1h-3l-5-1h-4c-4 0-7 0-11 2l1-9 11 3h2l1-2V39h8l12 1-1 2zm-18-8 2-3v-1l2 1-1 3zM36 52l-2 13c-1-4-2-9 0-13h2zm2 19 1-4h1a25 25 0 0 1 15-3l-1 8-16-1zM24 53h5c-1 5 0 10 1 14l-15-3-5 1c0-5 4-11 5-13zm51 7 2-13h12v11l1 5-7-2-4-1h-4zm3 10h-3c-3 0-4 1-5 2l-6 1h-6l1-8 7 2 7 3h2l1-2v-4l2 1z" />
</svg>