<svg xmlns="http://www.w3.org/2000/svg" xml:space="preserve" viewBox="0 0 57 57" fill="#fff">
	<path
		d="M36 25a1 1 0 0 0 2 0c0-1 1-2 2-1 2 0 4-1 5-3a1 1 0 1 0-2 0l-3 1c-2-1-4 0-4 2v1zm3-7a1 1 0 0 0 1 0 2 2 0 0 1 2-1c2 0 4-1 5-3a1 1 0 0 0-2 0l-2 1a4 4 0 0 0-5 2l1 1zm2-7a1 1 0 0 0 1 0l2-1a3 3 0 0 0 4-2 1 1 0 1 0-2-1 1 1 0 0 1-1 1c-2-1-4 0-5 2l1 1z" />
	<path
		d="M48 25c2-6 3-13 3-19 0-2-1-4-3-5h-4c-3 1-5 6-7 9v1l-3-4-4-4-3-3-2 1-2-1c-2 0-3 2-4 3s-3 3-3 5a5 5 0 0 0-3 6 4 4 0 0 0-1 4l-4-2a1 1 0 0 0 0 2l3 2c-2 0-4 1-5 3v4l2 24c0 3 2 6 5 6h28c3 0 6-3 6-6l2-25-1-1zM38 14l1-3c1-3 3-7 6-9h2l2 4a68 68 0 0 1-4 20l-1 1h-4v-1h-6l-1 1h-1a73 73 0 0 1 2-6l1-1 3-6zm-13 2v-1l1-1 4-1 1 1v1h1a6 6 0 0 1 1 1 4 4 0 0 1 1 1l-1 3h-1l-3 2-5 1-1-3 2-4zm5-6v1l-6 1v-1h3l3-1zm-3 16h-2v-1c2 0 4 0 5-2h2-1v1l-1 3v-1h-3zM15 15v-1a3 3 0 0 1 2-5h2l-1-1a2 2 0 0 1 2-3h1V4l2-2 1 1 1 1 1-1 1-1a1 1 0 0 1 1 2v1h1c1 0 3 1 3 3v1c2 0 3 2 3 3l-1 2-2-1v-3a2 2 0 0 0-2-2h-1l-3 1h-2l-2 1v2l1 2h1l-1 1v1h-1a8 8 0 0 0 0 1v1l-1 1a12 12 0 0 0-1-1l-1-1a5 5 0 0 0-1 0h-1v-1l-1 1h-2l1-2zm-7 8 3-1 3-2 3-2v1h2v1h1v1l1 1 1 5h-2v-1h-6l-2 1-2-1H9l-1-1v-2zm37 28c0 2-2 4-4 4H13c-2 0-3-2-3-4L8 28h1l3 1 3-1h4l3 1 2-1h5l3 1h1l2-1h4l3 1 3-1h1l1-1-2 24z" />
	<path
		d="M12 43h7a1 1 0 1 0 0-2h-7a1 1 0 1 0 0 2zm0 4h9a1 1 0 1 0 0-2h-9a1 1 0 1 0 0 2zm11 2H12a1 1 0 1 0 0 2h11a1 1 0 1 0 0-2zm6 0h-2a1 1 0 1 0 0 2h2a1 1 0 1 0 0-2z" />
</svg>