<?xml version="1.0" encoding="iso-8859-1"?>
<!-- Generator: Adobe Illustrator 19.0.0, SVG Export Plug-In . SVG Version: 6.00 Build 0)  -->
<svg version="1.1" id="Capa_1" xmlns="http://www.w3.org/2000/svg" xmlns:xlink="http://www.w3.org/1999/xlink" x="0px" y="0px"
	 viewBox="0 0 489.891 489.891" style="enable-background:new 0 0 489.891 489.891;" xml:space="preserve">
<g>
	<g>
		<g fill="#ffffff">
			<path d="M445.181,79.667c7,70.8-35.8,166-117.4,248c-73.1,73.1-162.1,118.2-232.9,118.2c-5.1,0-10.1-0.4-15.2-0.8
				c107.3,68,246.9,59.1,335.5-29.9S513.281,186.567,445.181,79.667z"/>
			<path d="M185.481,199.367l-38.1-38.1c-2.7,0.4-33.2,20.5-69.6,90.6l87.9-32.3C176.181,216.167,184.281,204.067,185.481,199.367z"
				/>
			<path d="M219.681,165.967l32.3-88.2c-64.9,30.3-90.2,66.9-90.6,69.2l38.1,38.1C204.581,184.267,216.181,175.667,219.681,165.967z
				"/>
			<path d="M248.481,163.667c0,0,93.8-89.3,94.9-98.8c-7-3.1-32.5-10.7-51.7-1.6c-7,1.6-17.5,11.7-20.2,19.4l-32.3,87.9
				C241.481,169.467,244.581,167.567,248.481,163.667z"/>
			<path d="M170.681,239.067l-87.9,32.3c-7.8,2.7-17.5,13.2-19.4,20.2c-5.1,21.4-4.7,38.9,1.2,51.7c2.7-0.8,7-3.1,12.1-8.2
				l86.7-86.7C167.181,244.867,169.581,241.367,170.681,239.067z"/>
			<path d="M199.081,235.967c6.6-7,14.8-12.4,22.5-14c1.9-7.8,7.4-15.9,14.4-22.5c0-0.4-0.4-0.4-0.4-0.8c-0.8-1.9-1.2-4.3-1.2-6.6
				c-2.7,0-5.1-0.8-7.4-1.6c-6.6,7-14.8,12.4-22.5,14c-1.9,7.8-7.4,15.9-14.4,22.5c0,0.4,0.4,0.4,0.4,0.8c0.8,1.9,1.2,4.3,1.2,6.6
				C194.481,234.367,197.181,234.767,199.081,235.967z"/>
			<path d="M134.581,362.667c7-1.6,17.5-11.7,20.2-19.4l32.3-87.9c-2.3,1.2-5.4,3.1-9.3,7l-86.8,86.7c-5.1,5.1-7.4,9.7-8.2,12.1
				C96.581,370.167,124.881,365.067,134.581,362.667z"/>
			<path d="M240.681,226.667l38.1,38.1c2.7-0.4,8.9-3.5,14.4-9.7c22.9-26,42-54,54.8-80.9l-87.9,32.3
				C250.081,209.867,241.481,221.967,240.681,226.667z"/>
			<path d="M255.481,186.967l87.9-32.3c7.8-2.7,17.5-13.2,19.4-20.2c5.1-21.4,4.7-38.9-1.2-51.7c-2.7,0.8-7,3.1-12.1,8.2l-87.1,86.7
				C258.581,181.167,256.681,184.667,255.481,186.967z"/>
			<path d="M313.381,313.367c103.8-103.8,142.7-232.9,87.1-288.1c-55.2-55.6-184.3-16.3-288.1,87.1
				c-103.4,103.8-142.7,232.8-87.1,288.4S209.981,417.167,313.381,313.367z M62.981,363.067c-6.2,0-11.3-3.1-14-8.2
				c-9.7-17.5-11.3-41.2-4.7-68.4c1.9-7.8,7.4-15.9,14.4-22.5c-1.9-3.9-3.1-10.5,1.6-20.2c13.6-28.4,33.8-57.9,57.9-85.5
				c7.4-8.2,15.9-14,24.1-15.9c1.9-8.2,7.8-17.1,15.9-24.1c27.6-24.5,57.2-44.3,85.5-57.9c7.8-3.5,14.8-3.9,20.2-1.6
				c6.6-7,15.2-12.4,22.5-14.4c27.6-6.6,51.3-5.1,68.4,4.7c4.3,2.3,8.1,8.1,7.8,14c6.2,0,11.3,3.1,14,8.2
				c9.7,17.5,11.3,41.2,4.7,68.4c-1.9,7.8-7.4,15.9-14.4,22.5c1.9,3.9,3.1,10.5-1.6,20.2c-13.6,28.4-33.8,57.9-57.9,85.5
				c-7,8.2-15.6,14-23.7,15.9c-1.9,8.2-7.8,17.1-15.9,24.1c-27.6,24.5-57.2,44.3-85.5,57.9c-4.3,1.9-13.4,4.9-20.2,1.6
				c-6.6,7-14.8,12.4-22.5,14.4c-11.3,2.7-21.8,4.3-31.5,4.3l0,0c-14.4,0-26.8-2.7-36.9-8.6
				C66.481,374.767,62.381,368.967,62.981,363.067z"/>
			<path d="M206.481,260.067l-32.3,87.9c26.8-12.8,54.8-31.9,80.9-54.8c6.6-5.8,9.3-12.1,9.7-14.4l-38.1-38.1
				C221.681,241.767,209.981,250.367,206.481,260.067z"/>
		</g>
	</g>
</g>
<g>
</g>
<g>
</g>
<g>
</g>
<g>
</g>
<g>
</g>
<g>
</g>
<g>
</g>
<g>
</g>
<g>
</g>
<g>
</g>
<g>
</g>
<g>
</g>
<g>
</g>
<g>
</g>
<g>
</g>
</svg>
