<svg xmlns="http://www.w3.org/2000/svg" xml:space="preserve" viewBox="0 0 567 231">
  <path fill="#fff"
    d="m10 44 2 1c3 3 8 6 14 6 2 0 6-1 6-4 1-3-2-3-4-4l-5-1c-9-1-16-7-15-17C11 9 27 0 41 0c8 0 14 2 20 6l-9 17c-4-3-8-5-13-5-2 0-5 1-6 3 0 3 3 3 4 4l6 1c10 2 16 8 14 19-2 16-18 24-32 24-9 0-18-3-25-6l10-19zm124 22-20 8-4-9c-6 3-12 4-18 4-21 0-34-14-30-34 3-22 22-35 42-35 21 0 35 13 31 35-1 7-4 14-9 20l8 11zM94 41l16-3 1-4c1-7-3-13-11-13-7 0-13 6-14 13s3 13 10 13h3l-5-6zm52-40h25l-8 45h21l-4 22h-44l10-67zm48 0h25l-11 67h-24l10-67zM13 82h25c22 0 38 10 34 35-3 20-19 32-39 32H3l10-67zm17 47h2c8 0 15-4 16-12 1-10-3-14-12-14h-2l-4 26zm53-47h24l-10 67H72l11-67zm98 28c-2 11-3 20-13 28-8 8-19 12-30 12-20 0-35-12-31-34 3-22 21-35 42-35 12 0 27 6 30 18l-24 8c-1-3-4-5-8-5-9 0-15 7-16 15s2 15 10 15c4 0 9-2 11-6h-11l3-16h37zm9-28h25l-11 67h-24l10-67zm28 0h51l-4 22h-13l-7 45h-25l8-45h-14l4-22zm55 67h-25l34-67h26l14 67h-26l-1-8h-18l-4 8zm20-24-1-12v-8h-1l-8 20h10zm41-43h24l-7 46h20l-3 21h-45l11-67zM13 164h45l-3 18H34l-1 6h19l-3 18H31l-1 6h21l-3 18H2l11-66zm117 0-25 31 18 35H95l-5-14-1-4h-1l-2 5-10 13H49l29-35-17-31h28l3 9 1 6h1l3-6 6-9h27zm5 0h31c15 0 25 8 23 24-2 14-12 22-26 22h-12l-3 20h-24l11-66zm18 29h3c4 1 9 0 10-6 0-5-4-5-8-5h-3l-2 12zm42-29h45l-3 18h-20l-1 6h19l-3 18h-19l-1 6h21l-3 18h-45l10-66zm52 0h30c15 0 26 6 24 23-2 10-6 14-16 17v1l3 4 11 21h-27l-8-21-3 21h-24l10-66zm19 29h2c4 0 8 0 9-5 1-6-3-6-7-6h-2l-2 11zm45-29h24l-10 66h-25l11-66zm31 0h45l-3 18h-20l-1 6h19l-3 18h-19l-1 6h21l-3 18h-45l10-66zm52 0h23l16 37h1l1-17 3-20h23l-11 66h-23l-15-35h-1l-1 14-3 21h-23l10-66zm119 27c-3-4-7-7-13-7-7 0-14 6-15 13s4 13 11 13c6 0 11-2 15-6l-5 25c-4 2-13 2-17 2-19 0-32-14-29-33a42 42 0 0 1 56-33l-3 26zm9-27h45l-3 18h-20l-1 6h18l-2 18h-19l-1 6h21l-3 18h-45l10-66z" />
</svg>