<svg xmlns="http://www.w3.org/2000/svg" viewBox="0 0 136 136">
  <defs/>
  <g fill="#fff">
    <path d="M66 5l-1-5-8 1v4c0 38-21 70-52 87l3 8C42 82 66 46 66 5z"/>
    <path d="M38 7l-9 5C27 33 16 51 0 63a71 71 0 000 11C23 60 38 35 38 7zM47 132a68 68 0 0042 0 68 68 0 00-42 0z"/>
    <path d="M31 125l9 5a72 72 0 0155 0l10-5a81 81 0 00-74 0zM24 16A68 68 0 001 56c12-10 20-24 23-40zM43 5c0 31-17 59-42 74l2 9C32 72 52 41 52 5V2l-9 3zM135 56c-3-16-11-30-23-40 3 16 11 30 23 40z"/>
    <path d="M135 74l1-6v-5a72 72 0 01-29-51L97 7c1 28 16 53 38 67z"/>
    <path d="M133 88l2-9A86 86 0 0193 5l-9-3v3c0 36 20 67 49 83z"/>
    <path d="M79 5V1l-9-1v5c0 41 23 77 57 95l4-8C100 75 79 43 79 5zM11 105l5 7a99 99 0 01104 0l5-8a109 109 0 00-114 1z"/>
    <path d="M19 115l7 6a85 85 0 0183 0c3-1 5-4 7-6a95 95 0 00-97 0z"/>
  </g>
</svg>
