<?xml version="1.0" encoding="UTF-8" standalone="no"?>
<!-- Generator: Adobe Illustrator 19.1.0, SVG Export Plug-In . SVG Version: 6.00 Build 0)  -->

<svg
   xmlns:dc="http://purl.org/dc/elements/1.1/"
   xmlns:cc="http://creativecommons.org/ns#"
   xmlns:rdf="http://www.w3.org/1999/02/22-rdf-syntax-ns#"
   xmlns:svg="http://www.w3.org/2000/svg"
   xmlns="http://www.w3.org/2000/svg"
   xmlns:sodipodi="http://sodipodi.sourceforge.net/DTD/sodipodi-0.dtd"
   xmlns:inkscape="http://www.inkscape.org/namespaces/inkscape"
   version="1.1"
   id="Lager_1"
   x="0px"
   y="0px"
   viewBox="0 0 135.7 135.6"
   xml:space="preserve"
   sodipodi:docname="starrepublic.svg"
   width="135.7"
   height="135.60001"
   inkscape:version="0.92.4 (5da689c313, 2019-01-14)"><metadata
   id="metadata35"><rdf:RDF><cc:Work
       rdf:about=""><dc:format>image/svg+xml</dc:format><dc:type
         rdf:resource="http://purl.org/dc/dcmitype/StillImage" /><dc:title></dc:title></cc:Work></rdf:RDF></metadata><defs
   id="defs33" /><sodipodi:namedview
   pagecolor="#ffffff"
   bordercolor="#666666"
   borderopacity="1"
   objecttolerance="10"
   gridtolerance="10"
   guidetolerance="10"
   inkscape:pageopacity="0"
   inkscape:pageshadow="2"
   inkscape:window-width="1720"
   inkscape:window-height="1365"
   id="namedview31"
   showgrid="false"
   fit-margin-top="0"
   fit-margin-left="0"
   fit-margin-right="0"
   fit-margin-bottom="0"
   inkscape:zoom="1.0563166"
   inkscape:cx="-16.15"
   inkscape:cy="35.299993"
   inkscape:window-x="1720"
   inkscape:window-y="0"
   inkscape:window-maximized="0"
   inkscape:current-layer="Lager_1" />
<g fill="#ffffff"
   id="g28"
   transform="translate(-96.4,-4.5)">
	<g
   id="g26">
		<path
   d="m 161.9,9.3 c 0,-1.6 0,-3.2 -0.1,-4.8 -3,0.1 -5.9,0.4 -8.8,0.9 0,1.3 0,2.6 0,3.9 0,37.8 -21,70.6 -52,87.6 1.1,2.8 2.3,5.4 3.7,8 34.1,-18.3 57.2,-54.3 57.2,-95.6 z"
   id="path2"
   inkscape:connector-curvature="0" />
		<path
   d="m 134.7,11.2 c -3.2,1.5 -6.2,3.3 -9.1,5.4 -2.1,20.9 -13,39.2 -29,51 -0.1,1.5 -0.2,3.1 -0.2,4.7 0,2 0.1,4 0.3,5.9 22.3,-14.1 37.3,-38.8 38,-67 z"
   id="path4"
   inkscape:connector-curvature="0" />
		<path
   d="m 143.5,136.8 c 6.6,2.1 13.5,3.3 20.8,3.3 7.3,0 14.2,-1.2 20.8,-3.3 -6.6,-2.1 -13.5,-3.3 -20.8,-3.3 -7.3,0.1 -14.3,1.2 -20.8,3.3 z"
   id="path6"
   inkscape:connector-curvature="0" />
		<path
   d="m 127.1,129 c 3,2 6.3,3.8 9.6,5.3 8.5,-3.5 17.8,-5.4 27.5,-5.4 9.7,0 19,1.9 27.5,5.4 3.4,-1.5 6.6,-3.3 9.6,-5.3 -11.1,-5.7 -23.8,-9 -37.2,-9 -13.4,0 -25.9,3.3 -37,9 z"
   id="path8"
   inkscape:connector-curvature="0" />
		<path
   d="M 120.2,20.7 C 108.4,30.8 100.1,44.9 97.4,60.9 109.2,50.8 117.5,36.7 120.2,20.7 Z"
   id="path10"
   inkscape:connector-curvature="0" />
		<path
   d="m 139.5,9.3 c 0,31.5 -16.9,59 -42.1,74.1 0.5,3.1 1.2,6.1 2.1,9 29.1,-16.2 48.9,-47.3 48.9,-83 0,-1 0,-2 -0.1,-3 -3,0.7 -5.9,1.7 -8.8,2.8 0,0 0,0.1 0,0.1 z"
   id="path12"
   inkscape:connector-curvature="0" />
		<path
   d="m 231.1,60.9 c -2.7,-16 -11,-30.1 -22.8,-40.2 2.7,16 11,30.1 22.8,40.2 z"
   id="path14"
   inkscape:connector-curvature="0" />
		<path
   d="m 231.8,78.2 c 0.2,-2 0.3,-3.9 0.3,-5.9 0,-1.6 -0.1,-3.1 -0.2,-4.7 -16,-11.9 -26.9,-30.1 -29,-51 -2.9,-2 -5.9,-3.8 -9.1,-5.4 0.6,28.2 15.6,52.9 38,67 z"
   id="path16"
   inkscape:connector-curvature="0" />
		<path
   d="m 229,92.3 c 0.9,-2.9 1.6,-5.9 2.1,-9 C 205.9,68.4 189,40.8 189,9.3 c 0,-0.1 0,-0.1 0,-0.2 -2.8,-1.1 -5.8,-2 -8.8,-2.8 0,1 -0.1,2 -0.1,3 0.1,35.7 19.8,66.8 48.9,83 z"
   id="path18"
   inkscape:connector-curvature="0" />
		<path
   d="m 175.4,9.3 c 0,-1.3 0,-2.6 0.1,-3.9 -2.9,-0.5 -5.8,-0.8 -8.8,-0.9 -0.1,1.6 -0.1,3.2 -0.1,4.8 0,41.3 23.1,77.2 57.1,95.6 1.4,-2.6 2.7,-5.2 3.7,-8 -31,-16.9 -52,-49.8 -52,-87.6 z"
   id="path20"
   inkscape:connector-curvature="0" />
		<path
   d="m 107.3,109 c 1.6,2.5 3.4,4.9 5.3,7.1 15.1,-9.2 32.8,-14.4 51.7,-14.4 18.9,0 36.6,5.3 51.7,14.4 1.9,-2.2 3.7,-4.6 5.3,-7.1 -16.6,-10.2 -36.1,-16.2 -57,-16.2 -20.9,0 -40.5,6 -57,16.2 z"
   id="path22"
   inkscape:connector-curvature="0" />
		<path
   d="m 115.8,119.7 c 2.2,2.2 4.5,4.3 6.9,6.2 12.3,-6.8 26.4,-10.6 41.5,-10.6 15.1,0 29.2,3.9 41.5,10.6 2.5,-1.9 4.8,-4 6.9,-6.2 -14.2,-8.4 -30.7,-13.3 -48.4,-13.3 -17.7,0 -34.2,4.9 -48.4,13.3 z"
   id="path24"
   inkscape:connector-curvature="0" />
	</g>
</g>
</svg>