<svg xmlns="http://www.w3.org/2000/svg" viewBox="0 0 512 512" fill="#fff">
	<path
		d="M493 274c-21-14-36-38-51-64l-6-9c30-83-11-151-12-154l-11-17-69 81c-25-11-54-17-88-17s-63 6-88 17L99 30 88 47c-1 3-42 71-12 154l-6 9c-15 26-30 50-51 64L0 286l18 13c2 1 128 87 156 115l24 28c15 21 30 40 58 40s43-19 58-40l24-28c28-28 154-114 156-115l18-13-19-12zM407 83c7 19 14 49 7 85a196 196 0 0 0-44-43l37-42zM99 103l6-20 37 42-10 7c-13 11-24 24-34 36-4-21-4-43 1-65zm111 306-15-16c-22-23-97-75-136-102 23-7 58-15 98-15 12 0 21 4 29 12 23 24 25 80 24 121zm46 43c-6 0-12-3-17-8a1065 1065 0 0 1 0-16h34v16c-5 5-11 8-17 8zm16-54h-32c0-45-4-101-33-131a67 67 0 0 0-50-21c-30 0-58 4-80 9l19-29c15-25 31-51 55-70 27-21 61-32 105-32s78 11 105 32c24 19 40 45 55 70l19 29c-22-5-50-9-80-9-20 0-37 7-50 21-29 30-33 86-33 131zm45-5-15 16c-1-41 1-97 24-121 8-8 17-12 29-12 40 0 75 8 98 15-39 27-114 79-136 102z" />
	<path
		d="M362 292c-9 0-17 8-17 18 0 9 8 17 17 17s17-8 17-17c0-10-8-18-17-18zm-212 0c-9 0-17 8-17 18 0 9 8 17 17 17s17-8 17-17c0-10-8-18-17-18z" />
</svg>