<svg data-name="Layer 1" xmlns="http://www.w3.org/2000/svg" viewBox="0 0 64 64" fill="#ffffff">
  <path d="M40.59 4H23.41A3.41 3.41 0 0020 7.41v9.17A3.41 3.41 0 0023.41 20h3.91a.68.68 0 01.68.68v.22a1.1 1.1 0 001.1 1.1h5.8a1.1 1.1 0 001.1-1.1v-.22a.68.68 0 01.68-.68h3.91A3.41 3.41 0 0044 16.59V7.41A3.41 3.41 0 0040.59 4zM38 12a2 2 0 01-1.51-.71.86.86 0 00-.66-.29h-7.65a.86.86 0 00-.66.29A2 2 0 0126 12a2 2 0 111.53-3.27.84.84 0 00.65.27h7.63a.84.84 0 00.65-.27A2 2 0 1138 12zM17 8a1 1 0 00-1 1v6a1 1 0 002 0V9a1 1 0 00-1-1zM47 16a1 1 0 001-1V9a1 1 0 10-2 0v6a1 1 0 001 1zM20 46.38A1.62 1.62 0 0021.62 48h20.76A1.62 1.62 0 0044 46.38v-17A5.36 5.36 0 0038.64 24H25.36A5.36 5.36 0 0020 29.36zm8.32-13.77a2.5 2.5 0 012.68-.38 2.54 2.54 0 002.06 0 2.5 2.5 0 012.65.39A2.6 2.6 0 0136 36l-2 2.86a2.5 2.5 0 01-4.12 0l-2-2.85a2.6 2.6 0 01.44-3.39zM20 56h-.1a1.9 1.9 0 00-1.9 1.9v1a1.07 1.07 0 001.07 1.1h9.87A1.07 1.07 0 0030 58.93v-1A1.9 1.9 0 0028.1 56H28v-4.83A1.17 1.17 0 0026.83 50h-5.66A1.17 1.17 0 0020 51.17zM42.83 50h-5.66A1.17 1.17 0 0036 51.17V56h-.1a1.9 1.9 0 00-1.9 1.9v1a1.07 1.07 0 001.07 1.1h9.87A1.07 1.07 0 0046 58.93v-1A1.9 1.9 0 0044.1 56H44v-4.83A1.17 1.17 0 0042.83 50zM14 31.12v9.73a1.55 1.55 0 01-.39 1.06 6 6 0 003.32 10A.93.93 0 0018 51v-2a1.33 1.33 0 00-.8-1.2 1.94 1.94 0 01-.1-3.48 1.8 1.8 0 00.9-1.62V28.88a.86.86 0 00-.82-.88A3.12 3.12 0 0014 31.12zM46.8 47.76A1.33 1.33 0 0046 49v2a.93.93 0 001.07.92 6 6 0 003.32-10 1.55 1.55 0 01-.39-1.06v-9.74A3.12 3.12 0 0046.82 28a.86.86 0 00-.82.88v13.79a1.8 1.8 0 00.9 1.62 1.94 1.94 0 01-.1 3.48z"/>
</svg>
