<?xml version="1.0" encoding="UTF-8" standalone="no"?>
<svg
   xmlns:dc="http://purl.org/dc/elements/1.1/"
   xmlns:cc="http://creativecommons.org/ns#"
   xmlns:rdf="http://www.w3.org/1999/02/22-rdf-syntax-ns#"
   xmlns:svg="http://www.w3.org/2000/svg"
   xmlns="http://www.w3.org/2000/svg"
   xmlns:sodipodi="http://sodipodi.sourceforge.net/DTD/sodipodi-0.dtd"
   xmlns:inkscape="http://www.inkscape.org/namespaces/inkscape"
   width="321.10501"
   height="321.10501"
   version="1.1"
   id="svg8"
   sodipodi:docname="fasttracker.svg"
   style="fill:#ffffff"
   inkscape:version="0.92.4 (5da689c313, 2019-01-14)">
  <metadata
     id="metadata14">
    <rdf:RDF>
      <cc:Work
         rdf:about="">
        <dc:format>image/svg+xml</dc:format>
        <dc:type
           rdf:resource="http://purl.org/dc/dcmitype/StillImage" />
        <dc:title></dc:title>
      </cc:Work>
    </rdf:RDF>
  </metadata>
  <defs
     id="defs12" />
  <sodipodi:namedview
     pagecolor="#ffffff"
     bordercolor="#666666"
     borderopacity="1"
     objecttolerance="10"
     gridtolerance="10"
     guidetolerance="10"
     inkscape:pageopacity="0"
     inkscape:pageshadow="2"
     inkscape:window-width="1920"
     inkscape:window-height="1005"
     id="namedview10"
     showgrid="false"
     fit-margin-top="0"
     fit-margin-left="0"
     fit-margin-right="0"
     fit-margin-bottom="0"
     inkscape:zoom="0.61987648"
     inkscape:cx="160.5345"
     inkscape:cy="160.5235"
     inkscape:window-x="0"
     inkscape:window-y="0"
     inkscape:window-maximized="1"
     inkscape:current-layer="svg8" />
  <path
     d="M 160.546,0.0339956 C 71.873,0.0339956 0,71.906996 0,160.581 0,224.472 37.418,279.475 91.445,305.315 l 5.025,-97.098 c 0,0 -9.452,-3.102 -11.521,-4.112 -20.048,-8.831 -34.612,-34.833 -34.612,-68.58 0,-36.825004 28.559,-68.544004 56.17,-68.806004 h 0.104 c 27.617,0.261 56.177,31.98 56.177,68.806004 0,33.747 -14.582,59.738 -34.589,68.58 -0.157,0.069 -11.613,4.229 -11.613,4.229 l 5.612,107.961 c 12.315,3.031 25.119,4.81 38.37,4.81 17.87,0 34.984,-3.044 51.041,-8.424 l 4.973,-96.214 c -13.105,-2.882 -24.283,-11.225 -31.289,-21.692 -8.679,-13.001 6.681,-128.067004 6.681,-128.067004 h 9.992 V 174.686 h 9.923 V 66.719996 h 10.852 V 174.71 h 9.876 V 66.719996 h 11.259 V 174.71 h 9.91 V 66.719996 h 7.668 c 0,0 15.36,115.066004 6.67,128.067004 -6.937,10.364 -18.01,18.683 -30.952,21.634 -0.232,0.082 -0.442,0.162 -0.442,0.162 l 4.322,82.761 C 288.875,271.54 321.105,219.884 321.105,160.582 321.081,71.907996 249.208,0.0339956 160.546,0.0339956 Z"
     id="path2"
     style="fill:#ffffff"
     inkscape:connector-curvature="0" />
</svg>
